<mxfile host="app.diagrams.net" modified="2021-06-02T11:48:28.130Z" agent="5.0 (Windows)" etag="_Po8R2iuDkY_w4TY1wHO" version="14.7.3" type="github">
  <diagram id="80yZAHpurwyC2C2U7vmw" name="第 1 页">
    <mxGraphModel dx="1422" dy="763" grid="1" gridSize="10" guides="1" tooltips="1" connect="1" arrows="1" fold="1" page="1" pageScale="1" pageWidth="827" pageHeight="1169" math="0" shadow="0">
      <root>
        <mxCell id="0" />
        <mxCell id="1" parent="0" />
        <mxCell id="2Vet_JQUSWxg4O2W9YX3-3" value="扫描退款中的数据" style="edgeStyle=orthogonalEdgeStyle;rounded=0;orthogonalLoop=1;jettySize=auto;html=1;entryX=0.5;entryY=1;entryDx=0;entryDy=0;" edge="1" parent="1" source="2Vet_JQUSWxg4O2W9YX3-1" target="2Vet_JQUSWxg4O2W9YX3-2">
          <mxGeometry relative="1" as="geometry" />
        </mxCell>
        <mxCell id="2Vet_JQUSWxg4O2W9YX3-5" style="edgeStyle=orthogonalEdgeStyle;rounded=0;orthogonalLoop=1;jettySize=auto;html=1;entryX=0.5;entryY=0;entryDx=0;entryDy=0;" edge="1" parent="1" source="2Vet_JQUSWxg4O2W9YX3-1">
          <mxGeometry relative="1" as="geometry">
            <mxPoint x="380" y="360" as="targetPoint" />
          </mxGeometry>
        </mxCell>
        <mxCell id="2Vet_JQUSWxg4O2W9YX3-1" value="定时器" style="rounded=1;whiteSpace=wrap;html=1;" vertex="1" parent="1">
          <mxGeometry x="320" y="200" width="120" height="60" as="geometry" />
        </mxCell>
        <mxCell id="2Vet_JQUSWxg4O2W9YX3-2" value="退款表" style="rounded=1;whiteSpace=wrap;html=1;" vertex="1" parent="1">
          <mxGeometry x="320" y="40" width="120" height="60" as="geometry" />
        </mxCell>
        <mxCell id="2Vet_JQUSWxg4O2W9YX3-12" value="已退款" style="edgeStyle=orthogonalEdgeStyle;rounded=0;orthogonalLoop=1;jettySize=auto;html=1;entryX=0.5;entryY=0;entryDx=0;entryDy=0;" edge="1" parent="1" source="2Vet_JQUSWxg4O2W9YX3-10" target="2Vet_JQUSWxg4O2W9YX3-11">
          <mxGeometry relative="1" as="geometry" />
        </mxCell>
        <mxCell id="2Vet_JQUSWxg4O2W9YX3-14" value="未退款" style="edgeStyle=orthogonalEdgeStyle;rounded=0;orthogonalLoop=1;jettySize=auto;html=1;entryX=0.592;entryY=0.017;entryDx=0;entryDy=0;entryPerimeter=0;" edge="1" parent="1" source="2Vet_JQUSWxg4O2W9YX3-10" target="2Vet_JQUSWxg4O2W9YX3-13">
          <mxGeometry relative="1" as="geometry" />
        </mxCell>
        <mxCell id="2Vet_JQUSWxg4O2W9YX3-16" style="edgeStyle=orthogonalEdgeStyle;rounded=0;orthogonalLoop=1;jettySize=auto;html=1;entryX=0.325;entryY=-0.017;entryDx=0;entryDy=0;entryPerimeter=0;" edge="1" parent="1" source="2Vet_JQUSWxg4O2W9YX3-10" target="2Vet_JQUSWxg4O2W9YX3-15">
          <mxGeometry relative="1" as="geometry">
            <Array as="points">
              <mxPoint x="740" y="390" />
              <mxPoint x="740" y="519" />
            </Array>
          </mxGeometry>
        </mxCell>
        <mxCell id="2Vet_JQUSWxg4O2W9YX3-10" value="查询支付宝或者微信的退款接口" style="rounded=1;whiteSpace=wrap;html=1;" vertex="1" parent="1">
          <mxGeometry x="320" y="360" width="120" height="60" as="geometry" />
        </mxCell>
        <mxCell id="2Vet_JQUSWxg4O2W9YX3-11" value="修改订单表中的订单状态和退款表中的退款状态" style="rounded=1;whiteSpace=wrap;html=1;" vertex="1" parent="1">
          <mxGeometry x="160" y="520" width="120" height="60" as="geometry" />
        </mxCell>
        <mxCell id="2Vet_JQUSWxg4O2W9YX3-18" style="edgeStyle=orthogonalEdgeStyle;rounded=0;orthogonalLoop=1;jettySize=auto;html=1;entryX=0.5;entryY=0;entryDx=0;entryDy=0;" edge="1" parent="1" source="2Vet_JQUSWxg4O2W9YX3-13" target="2Vet_JQUSWxg4O2W9YX3-17">
          <mxGeometry relative="1" as="geometry">
            <Array as="points">
              <mxPoint x="550" y="660" />
            </Array>
          </mxGeometry>
        </mxCell>
        <mxCell id="2Vet_JQUSWxg4O2W9YX3-13" value="请求支付宝退款接口" style="rounded=1;whiteSpace=wrap;html=1;" vertex="1" parent="1">
          <mxGeometry x="480" y="520" width="120" height="60" as="geometry" />
        </mxCell>
        <mxCell id="2Vet_JQUSWxg4O2W9YX3-25" style="edgeStyle=orthogonalEdgeStyle;rounded=0;orthogonalLoop=1;jettySize=auto;html=1;entryX=0.5;entryY=0;entryDx=0;entryDy=0;" edge="1" parent="1" source="2Vet_JQUSWxg4O2W9YX3-15" target="2Vet_JQUSWxg4O2W9YX3-23">
          <mxGeometry relative="1" as="geometry" />
        </mxCell>
        <mxCell id="2Vet_JQUSWxg4O2W9YX3-15" value="请求微信退款接口" style="rounded=1;whiteSpace=wrap;html=1;" vertex="1" parent="1">
          <mxGeometry x="680" y="520" width="120" height="60" as="geometry" />
        </mxCell>
        <mxCell id="2Vet_JQUSWxg4O2W9YX3-20" style="edgeStyle=orthogonalEdgeStyle;rounded=0;orthogonalLoop=1;jettySize=auto;html=1;entryX=1;entryY=0.5;entryDx=0;entryDy=0;" edge="1" parent="1" source="2Vet_JQUSWxg4O2W9YX3-17" target="2Vet_JQUSWxg4O2W9YX3-19">
          <mxGeometry relative="1" as="geometry" />
        </mxCell>
        <mxCell id="2Vet_JQUSWxg4O2W9YX3-17" value="&lt;span style=&quot;color: #262626 ; font-size: 14px&quot;&gt;返回fund_change=Y&lt;/span&gt;" style="rounded=1;whiteSpace=wrap;html=1;" vertex="1" parent="1">
          <mxGeometry x="480" y="660" width="120" height="60" as="geometry" />
        </mxCell>
        <mxCell id="2Vet_JQUSWxg4O2W9YX3-22" style="edgeStyle=orthogonalEdgeStyle;rounded=0;orthogonalLoop=1;jettySize=auto;html=1;exitX=0;exitY=0.5;exitDx=0;exitDy=0;entryX=1;entryY=0.5;entryDx=0;entryDy=0;" edge="1" parent="1" source="2Vet_JQUSWxg4O2W9YX3-19" target="2Vet_JQUSWxg4O2W9YX3-21">
          <mxGeometry relative="1" as="geometry" />
        </mxCell>
        <mxCell id="2Vet_JQUSWxg4O2W9YX3-19" value="修改订单表中的订单状态和退款表中的退款状态" style="rounded=1;whiteSpace=wrap;html=1;" vertex="1" parent="1">
          <mxGeometry x="230" y="660" width="120" height="60" as="geometry" />
        </mxCell>
        <mxCell id="2Vet_JQUSWxg4O2W9YX3-21" value="结束" style="rounded=1;whiteSpace=wrap;html=1;" vertex="1" parent="1">
          <mxGeometry x="50" y="660" width="120" height="60" as="geometry" />
        </mxCell>
        <mxCell id="2Vet_JQUSWxg4O2W9YX3-23" value="结束" style="rounded=1;whiteSpace=wrap;html=1;" vertex="1" parent="1">
          <mxGeometry x="680" y="660" width="120" height="60" as="geometry" />
        </mxCell>
      </root>
    </mxGraphModel>
  </diagram>
</mxfile>
